# xmcd CD database file
#
# Track frame offsets:
#	150
#	14487
#	28485
#	41710
#	56542
#	69910
#	82702
#	95730
#	107640
#	123872
#	137257
#
# Disc length: 2040 seconds
#
# Revision: 1
# Processed by: cddbd v1.5.1PL0 Copyright (c) Steve Scherf et al.
# Submitted via: CDex 1.51
#
DISCID=8907f60b
DTITLE=Quenga de Coco - Amor de Sertão
DYEAR=2002
DGENRE=Forro
TTITLE0=Amor de sertão
TTITLE1=Todo amor
TTITLE2=Retrato escondido
TTITLE3=Olhar de passarinho
TTITLE4=Danou-se um coração
TTITLE5=Qui nem jiló
TTITLE6=Quando chega o verão
TTITLE7=Forro Chorão e Festejo
TTITLE8=O velho arvoredo
TTITLE9=Que nem pudim
TTITLE10=Vida viola
EXTD=YEAR: 2002
EXTT0=
EXTT1=
EXTT2=
EXTT3=
EXTT4=
EXTT5=
EXTT6=
EXTT7=
EXTT8=
EXTT9=
EXTT10=
PLAYORDER=
